<mxfile host="Electron" modified="2024-02-03T23:47:33.276Z" agent="Mozilla/5.0 (Windows NT 10.0; Win64; x64) AppleWebKit/537.36 (KHTML, like Gecko) draw.io/23.0.2 Chrome/120.0.6099.109 Electron/28.1.0 Safari/537.36" etag="l51SSRcaoY-s21COlIdn" version="23.0.2" type="device">
  <diagram name="Page-1" id="1W59cAZbDxLe2ViU_KJG">
    <mxGraphModel dx="619" dy="1838" grid="1" gridSize="10" guides="1" tooltips="1" connect="1" arrows="1" fold="1" page="1" pageScale="1" pageWidth="850" pageHeight="1100" math="0" shadow="0">
      <root>
        <mxCell id="0" />
        <mxCell id="1" parent="0" />
        <mxCell id="25vutI120iv0R7yCuZB1-7" value="" style="edgeStyle=orthogonalEdgeStyle;rounded=0;orthogonalLoop=1;jettySize=auto;html=1;" edge="1" parent="1" source="25vutI120iv0R7yCuZB1-1" target="25vutI120iv0R7yCuZB1-2">
          <mxGeometry relative="1" as="geometry" />
        </mxCell>
        <mxCell id="25vutI120iv0R7yCuZB1-1" value="Start" style="ellipse;whiteSpace=wrap;html=1;" vertex="1" parent="1">
          <mxGeometry x="1958.67" y="90" width="180" height="130" as="geometry" />
        </mxCell>
        <mxCell id="25vutI120iv0R7yCuZB1-4" value="" style="edgeStyle=orthogonalEdgeStyle;rounded=0;orthogonalLoop=1;jettySize=auto;html=1;" edge="1" parent="1" source="25vutI120iv0R7yCuZB1-2" target="25vutI120iv0R7yCuZB1-3">
          <mxGeometry relative="1" as="geometry" />
        </mxCell>
        <mxCell id="25vutI120iv0R7yCuZB1-2" value="Start program?&lt;br&gt;(y/n)" style="shape=parallelogram;perimeter=parallelogramPerimeter;whiteSpace=wrap;html=1;fixedSize=1;" vertex="1" parent="1">
          <mxGeometry x="1758.67" y="460" width="120" height="60" as="geometry" />
        </mxCell>
        <mxCell id="25vutI120iv0R7yCuZB1-17" value="" style="edgeStyle=orthogonalEdgeStyle;rounded=0;orthogonalLoop=1;jettySize=auto;html=1;" edge="1" parent="1" source="25vutI120iv0R7yCuZB1-3" target="25vutI120iv0R7yCuZB1-16">
          <mxGeometry relative="1" as="geometry" />
        </mxCell>
        <mxCell id="25vutI120iv0R7yCuZB1-3" value="Y or N" style="rhombus;whiteSpace=wrap;html=1;" vertex="1" parent="1">
          <mxGeometry x="1778.67" y="600" width="80" height="80" as="geometry" />
        </mxCell>
        <mxCell id="25vutI120iv0R7yCuZB1-21" style="edgeStyle=orthogonalEdgeStyle;rounded=0;orthogonalLoop=1;jettySize=auto;html=1;entryX=1;entryY=0.5;entryDx=0;entryDy=0;" edge="1" parent="1" source="25vutI120iv0R7yCuZB1-16" target="25vutI120iv0R7yCuZB1-2">
          <mxGeometry relative="1" as="geometry">
            <Array as="points">
              <mxPoint x="2038.67" y="500" />
              <mxPoint x="1868.67" y="500" />
            </Array>
          </mxGeometry>
        </mxCell>
        <mxCell id="25vutI120iv0R7yCuZB1-16" value="Please enter yes(y) or no(n)!" style="rounded=1;whiteSpace=wrap;html=1;" vertex="1" parent="1">
          <mxGeometry x="1978.67" y="610" width="120" height="60" as="geometry" />
        </mxCell>
        <mxCell id="25vutI120iv0R7yCuZB1-20" value="F" style="text;html=1;strokeColor=none;fillColor=none;align=center;verticalAlign=middle;whiteSpace=wrap;rounded=0;" vertex="1" parent="1">
          <mxGeometry x="1878.67" y="600" width="60" height="30" as="geometry" />
        </mxCell>
        <mxCell id="25vutI120iv0R7yCuZB1-23" value="T" style="text;html=1;strokeColor=none;fillColor=none;align=center;verticalAlign=middle;whiteSpace=wrap;rounded=0;" vertex="1" parent="1">
          <mxGeometry x="1718.67" y="610" width="60" height="30" as="geometry" />
        </mxCell>
        <mxCell id="25vutI120iv0R7yCuZB1-27" value="" style="endArrow=none;html=1;rounded=0;entryX=0;entryY=0.5;entryDx=0;entryDy=0;" edge="1" parent="1" target="25vutI120iv0R7yCuZB1-3">
          <mxGeometry width="50" height="50" relative="1" as="geometry">
            <mxPoint x="1688.67" y="640" as="sourcePoint" />
            <mxPoint x="1848.67" y="680" as="targetPoint" />
          </mxGeometry>
        </mxCell>
        <mxCell id="25vutI120iv0R7yCuZB1-28" value="" style="endArrow=classic;html=1;rounded=0;" edge="1" parent="1">
          <mxGeometry width="50" height="50" relative="1" as="geometry">
            <mxPoint x="1688.67" y="640" as="sourcePoint" />
            <mxPoint x="1688.67" y="580" as="targetPoint" />
          </mxGeometry>
        </mxCell>
        <mxCell id="25vutI120iv0R7yCuZB1-29" value="" style="endArrow=classic;html=1;rounded=0;" edge="1" parent="1">
          <mxGeometry width="50" height="50" relative="1" as="geometry">
            <mxPoint x="1688.67" y="640" as="sourcePoint" />
            <mxPoint x="1688.67" y="750" as="targetPoint" />
          </mxGeometry>
        </mxCell>
        <mxCell id="25vutI120iv0R7yCuZB1-33" value="" style="edgeStyle=orthogonalEdgeStyle;rounded=0;orthogonalLoop=1;jettySize=auto;html=1;" edge="1" parent="1" source="25vutI120iv0R7yCuZB1-30" target="25vutI120iv0R7yCuZB1-32">
          <mxGeometry relative="1" as="geometry" />
        </mxCell>
        <mxCell id="25vutI120iv0R7yCuZB1-30" value="N" style="rhombus;whiteSpace=wrap;html=1;" vertex="1" parent="1">
          <mxGeometry x="1648.67" y="500" width="80" height="80" as="geometry" />
        </mxCell>
        <mxCell id="25vutI120iv0R7yCuZB1-38" value="" style="edgeStyle=orthogonalEdgeStyle;rounded=0;orthogonalLoop=1;jettySize=auto;html=1;" edge="1" parent="1" source="25vutI120iv0R7yCuZB1-31" target="25vutI120iv0R7yCuZB1-37">
          <mxGeometry relative="1" as="geometry" />
        </mxCell>
        <mxCell id="25vutI120iv0R7yCuZB1-31" value="Y" style="rhombus;whiteSpace=wrap;html=1;" vertex="1" parent="1">
          <mxGeometry x="1648.67" y="750" width="80" height="80" as="geometry" />
        </mxCell>
        <mxCell id="25vutI120iv0R7yCuZB1-32" value="&quot;Good bye!" style="rounded=1;whiteSpace=wrap;html=1;" vertex="1" parent="1">
          <mxGeometry x="1628.67" y="390" width="120" height="60" as="geometry" />
        </mxCell>
        <mxCell id="25vutI120iv0R7yCuZB1-40" value="" style="edgeStyle=orthogonalEdgeStyle;rounded=0;orthogonalLoop=1;jettySize=auto;html=1;" edge="1" parent="1" source="25vutI120iv0R7yCuZB1-37" target="25vutI120iv0R7yCuZB1-39">
          <mxGeometry relative="1" as="geometry" />
        </mxCell>
        <mxCell id="25vutI120iv0R7yCuZB1-37" value="Enter your name:&amp;nbsp;" style="shape=parallelogram;perimeter=parallelogramPerimeter;whiteSpace=wrap;html=1;fixedSize=1;" vertex="1" parent="1">
          <mxGeometry x="1758.67" y="760" width="160" height="60" as="geometry" />
        </mxCell>
        <mxCell id="25vutI120iv0R7yCuZB1-43" value="" style="edgeStyle=orthogonalEdgeStyle;rounded=0;orthogonalLoop=1;jettySize=auto;html=1;" edge="1" parent="1" source="25vutI120iv0R7yCuZB1-39" target="25vutI120iv0R7yCuZB1-42">
          <mxGeometry relative="1" as="geometry" />
        </mxCell>
        <mxCell id="25vutI120iv0R7yCuZB1-39" value="&lt;font style=&quot;font-size: 12px;&quot;&gt;Enter h if you are Household customer.&lt;br&gt;&lt;span style=&quot;&quot;&gt;Enter a if you are Administrative agency or public services.&lt;/span&gt;&lt;br&gt;&lt;span style=&quot;&quot;&gt;Enter p if you are Production units&lt;/span&gt;&lt;br&gt;&lt;span style=&quot;&quot;&gt;Enter b if you are Business services.&lt;/span&gt;&lt;br&gt;&lt;span style=&quot;&quot;&gt;&quot;Enter your type of customer:&amp;nbsp; (type)&lt;/span&gt;&lt;br&gt;&lt;/font&gt;" style="shape=parallelogram;perimeter=parallelogramPerimeter;whiteSpace=wrap;html=1;fixedSize=1;" vertex="1" parent="1">
          <mxGeometry x="1668.67" y="900" width="340" height="90" as="geometry" />
        </mxCell>
        <mxCell id="25vutI120iv0R7yCuZB1-46" value="" style="edgeStyle=orthogonalEdgeStyle;rounded=0;orthogonalLoop=1;jettySize=auto;html=1;" edge="1" parent="1" source="25vutI120iv0R7yCuZB1-42" target="25vutI120iv0R7yCuZB1-45">
          <mxGeometry relative="1" as="geometry" />
        </mxCell>
        <mxCell id="25vutI120iv0R7yCuZB1-42" value="h or a or p or b" style="rhombus;whiteSpace=wrap;html=1;" vertex="1" parent="1">
          <mxGeometry x="1783.67" y="1050" width="110" height="110" as="geometry" />
        </mxCell>
        <mxCell id="25vutI120iv0R7yCuZB1-48" style="edgeStyle=orthogonalEdgeStyle;rounded=0;orthogonalLoop=1;jettySize=auto;html=1;" edge="1" parent="1" target="25vutI120iv0R7yCuZB1-39">
          <mxGeometry relative="1" as="geometry">
            <mxPoint x="2098.69" y="906.3200000000002" as="targetPoint" />
            <mxPoint x="2131.07" y="1075" as="sourcePoint" />
            <Array as="points">
              <mxPoint x="2130.67" y="1076" />
              <mxPoint x="2068.67" y="1076" />
              <mxPoint x="2068.67" y="930" />
            </Array>
          </mxGeometry>
        </mxCell>
        <mxCell id="25vutI120iv0R7yCuZB1-45" value="&quot;Please enter your type of customer correctly!&quot;" style="rounded=1;whiteSpace=wrap;html=1;" vertex="1" parent="1">
          <mxGeometry x="2038.67" y="1075" width="120" height="60" as="geometry" />
        </mxCell>
        <mxCell id="25vutI120iv0R7yCuZB1-47" value="F" style="text;html=1;strokeColor=none;fillColor=none;align=center;verticalAlign=middle;whiteSpace=wrap;rounded=0;" vertex="1" parent="1">
          <mxGeometry x="1918.67" y="1075" width="60" height="30" as="geometry" />
        </mxCell>
        <mxCell id="25vutI120iv0R7yCuZB1-52" value="T" style="text;html=1;strokeColor=none;fillColor=none;align=center;verticalAlign=middle;whiteSpace=wrap;rounded=0;" vertex="1" parent="1">
          <mxGeometry x="1788.67" y="1180" width="60" height="30" as="geometry" />
        </mxCell>
        <mxCell id="25vutI120iv0R7yCuZB1-53" value="" style="endArrow=classic;html=1;rounded=0;exitX=0.5;exitY=1;exitDx=0;exitDy=0;entryX=0.5;entryY=0;entryDx=0;entryDy=0;" edge="1" parent="1" source="25vutI120iv0R7yCuZB1-42" target="25vutI120iv0R7yCuZB1-54">
          <mxGeometry width="50" height="50" relative="1" as="geometry">
            <mxPoint x="1938.67" y="1470" as="sourcePoint" />
            <mxPoint x="1838.67" y="1280" as="targetPoint" />
          </mxGeometry>
        </mxCell>
        <mxCell id="25vutI120iv0R7yCuZB1-61" value="" style="edgeStyle=orthogonalEdgeStyle;rounded=0;orthogonalLoop=1;jettySize=auto;html=1;" edge="1" parent="1" source="25vutI120iv0R7yCuZB1-54" target="25vutI120iv0R7yCuZB1-59">
          <mxGeometry relative="1" as="geometry" />
        </mxCell>
        <mxCell id="25vutI120iv0R7yCuZB1-54" value="double money = 0&lt;br&gt;" style="rounded=0;whiteSpace=wrap;html=1;" vertex="1" parent="1">
          <mxGeometry x="1763.67" y="1210" width="150" height="30" as="geometry" />
        </mxCell>
        <mxCell id="25vutI120iv0R7yCuZB1-69" value="" style="edgeStyle=orthogonalEdgeStyle;rounded=0;orthogonalLoop=1;jettySize=auto;html=1;" edge="1" parent="1" source="25vutI120iv0R7yCuZB1-59" target="25vutI120iv0R7yCuZB1-68">
          <mxGeometry relative="1" as="geometry" />
        </mxCell>
        <mxCell id="25vutI120iv0R7yCuZB1-59" value="Enter last month water index:&amp;nbsp; (lastWater)&lt;br&gt;Enter this month water index:&amp;nbsp; (thisWater)" style="rounded=1;whiteSpace=wrap;html=1;" vertex="1" parent="1">
          <mxGeometry x="1706.17" y="1310" width="265" height="50" as="geometry" />
        </mxCell>
        <mxCell id="25vutI120iv0R7yCuZB1-71" value="" style="edgeStyle=orthogonalEdgeStyle;rounded=0;orthogonalLoop=1;jettySize=auto;html=1;" edge="1" parent="1" source="25vutI120iv0R7yCuZB1-68" target="25vutI120iv0R7yCuZB1-70">
          <mxGeometry relative="1" as="geometry" />
        </mxCell>
        <mxCell id="25vutI120iv0R7yCuZB1-68" value="usedWater = thisWater - lastWater" style="rounded=0;whiteSpace=wrap;html=1;" vertex="1" parent="1">
          <mxGeometry x="1778.67" y="1430" width="120" height="60" as="geometry" />
        </mxCell>
        <mxCell id="25vutI120iv0R7yCuZB1-73" value="" style="edgeStyle=orthogonalEdgeStyle;rounded=0;orthogonalLoop=1;jettySize=auto;html=1;" edge="1" parent="1" source="25vutI120iv0R7yCuZB1-70" target="25vutI120iv0R7yCuZB1-72">
          <mxGeometry relative="1" as="geometry" />
        </mxCell>
        <mxCell id="25vutI120iv0R7yCuZB1-78" value="" style="edgeStyle=orthogonalEdgeStyle;rounded=0;orthogonalLoop=1;jettySize=auto;html=1;" edge="1" parent="1" source="25vutI120iv0R7yCuZB1-70" target="25vutI120iv0R7yCuZB1-77">
          <mxGeometry relative="1" as="geometry" />
        </mxCell>
        <mxCell id="25vutI120iv0R7yCuZB1-70" value="usedWater &amp;gt; 0&lt;br&gt;and&lt;br&gt;lastWater &amp;lt; 0" style="rhombus;whiteSpace=wrap;html=1;rounded=0;" vertex="1" parent="1">
          <mxGeometry x="1748.67" y="1540" width="180" height="100" as="geometry" />
        </mxCell>
        <mxCell id="25vutI120iv0R7yCuZB1-74" style="edgeStyle=orthogonalEdgeStyle;rounded=0;orthogonalLoop=1;jettySize=auto;html=1;" edge="1" parent="1" source="25vutI120iv0R7yCuZB1-72" target="25vutI120iv0R7yCuZB1-39">
          <mxGeometry relative="1" as="geometry">
            <mxPoint x="1608.6699999999998" y="929.9999999999998" as="targetPoint" />
            <Array as="points">
              <mxPoint x="1608.67" y="945" />
            </Array>
          </mxGeometry>
        </mxCell>
        <mxCell id="25vutI120iv0R7yCuZB1-72" value="Please Check your water index" style="rounded=1;whiteSpace=wrap;html=1;" vertex="1" parent="1">
          <mxGeometry x="1548.67" y="1560" width="120" height="60" as="geometry" />
        </mxCell>
        <mxCell id="25vutI120iv0R7yCuZB1-76" value="F" style="text;html=1;align=center;verticalAlign=middle;resizable=0;points=[];autosize=1;strokeColor=none;fillColor=none;" vertex="1" parent="1">
          <mxGeometry x="1698.67" y="1560" width="30" height="30" as="geometry" />
        </mxCell>
        <mxCell id="25vutI120iv0R7yCuZB1-80" value="" style="edgeStyle=orthogonalEdgeStyle;rounded=0;orthogonalLoop=1;jettySize=auto;html=1;" edge="1" parent="1" source="25vutI120iv0R7yCuZB1-77" target="25vutI120iv0R7yCuZB1-79">
          <mxGeometry relative="1" as="geometry" />
        </mxCell>
        <mxCell id="25vutI120iv0R7yCuZB1-77" value="type = h&lt;br&gt;(house)" style="rhombus;whiteSpace=wrap;html=1;rounded=0;" vertex="1" parent="1">
          <mxGeometry x="2008.67" y="1550" width="80" height="80" as="geometry" />
        </mxCell>
        <mxCell id="25vutI120iv0R7yCuZB1-84" value="" style="edgeStyle=orthogonalEdgeStyle;rounded=0;orthogonalLoop=1;jettySize=auto;html=1;" edge="1" parent="1" source="25vutI120iv0R7yCuZB1-79" target="25vutI120iv0R7yCuZB1-83">
          <mxGeometry relative="1" as="geometry" />
        </mxCell>
        <mxCell id="25vutI120iv0R7yCuZB1-79" value="&quot;Enter the number of family members:&amp;nbsp; &amp;nbsp;(numMem)" style="rounded=1;whiteSpace=wrap;html=1;" vertex="1" parent="1">
          <mxGeometry x="2658.67" y="1560" width="120" height="60" as="geometry" />
        </mxCell>
        <mxCell id="25vutI120iv0R7yCuZB1-82" value="T" style="text;html=1;align=center;verticalAlign=middle;resizable=0;points=[];autosize=1;strokeColor=none;fillColor=none;" vertex="1" parent="1">
          <mxGeometry x="2138.67" y="1560" width="30" height="30" as="geometry" />
        </mxCell>
        <mxCell id="25vutI120iv0R7yCuZB1-86" value="" style="edgeStyle=orthogonalEdgeStyle;rounded=0;orthogonalLoop=1;jettySize=auto;html=1;" edge="1" parent="1" source="25vutI120iv0R7yCuZB1-83">
          <mxGeometry relative="1" as="geometry">
            <mxPoint x="2718.67" y="1960" as="targetPoint" />
            <Array as="points">
              <mxPoint x="2718.67" y="1905" />
              <mxPoint x="2719.67" y="1960" />
            </Array>
          </mxGeometry>
        </mxCell>
        <mxCell id="25vutI120iv0R7yCuZB1-92" value="" style="edgeStyle=orthogonalEdgeStyle;rounded=0;orthogonalLoop=1;jettySize=auto;html=1;" edge="1" parent="1" source="25vutI120iv0R7yCuZB1-83" target="25vutI120iv0R7yCuZB1-91">
          <mxGeometry relative="1" as="geometry" />
        </mxCell>
        <mxCell id="25vutI120iv0R7yCuZB1-83" value="numMem &amp;gt; 0" style="rhombus;whiteSpace=wrap;html=1;rounded=1;" vertex="1" parent="1">
          <mxGeometry x="2673.67" y="1770" width="90" height="80" as="geometry" />
        </mxCell>
        <mxCell id="25vutI120iv0R7yCuZB1-93" style="edgeStyle=orthogonalEdgeStyle;rounded=0;orthogonalLoop=1;jettySize=auto;html=1;entryX=1;entryY=0.25;entryDx=0;entryDy=0;" edge="1" parent="1" source="25vutI120iv0R7yCuZB1-91" target="25vutI120iv0R7yCuZB1-2">
          <mxGeometry relative="1" as="geometry">
            <mxPoint x="2720.098571428571" y="250" as="targetPoint" />
            <Array as="points">
              <mxPoint x="2948.67" y="476" />
            </Array>
          </mxGeometry>
        </mxCell>
        <mxCell id="25vutI120iv0R7yCuZB1-91" value="Please enter the number of family members correctly!" style="rounded=1;whiteSpace=wrap;html=1;" vertex="1" parent="1">
          <mxGeometry x="2888.67" y="1780" width="120" height="60" as="geometry" />
        </mxCell>
        <mxCell id="25vutI120iv0R7yCuZB1-94" value="F" style="text;html=1;align=center;verticalAlign=middle;resizable=0;points=[];autosize=1;strokeColor=none;fillColor=none;" vertex="1" parent="1">
          <mxGeometry x="2793.67" y="1780" width="30" height="30" as="geometry" />
        </mxCell>
        <mxCell id="25vutI120iv0R7yCuZB1-95" value="T" style="text;html=1;align=center;verticalAlign=middle;resizable=0;points=[];autosize=1;strokeColor=none;fillColor=none;" vertex="1" parent="1">
          <mxGeometry x="2673.67" y="1868" width="30" height="30" as="geometry" />
        </mxCell>
        <mxCell id="25vutI120iv0R7yCuZB1-98" value="" style="edgeStyle=orthogonalEdgeStyle;rounded=0;orthogonalLoop=1;jettySize=auto;html=1;" edge="1" parent="1" source="25vutI120iv0R7yCuZB1-96" target="25vutI120iv0R7yCuZB1-97">
          <mxGeometry relative="1" as="geometry" />
        </mxCell>
        <mxCell id="25vutI120iv0R7yCuZB1-96" value="Water was used by each member&lt;br&gt;(memberUsedWater = usedWater / numMem)" style="rounded=0;whiteSpace=wrap;html=1;" vertex="1" parent="1">
          <mxGeometry x="2586.17" y="1960" width="265" height="100" as="geometry" />
        </mxCell>
        <mxCell id="25vutI120iv0R7yCuZB1-104" value="" style="edgeStyle=orthogonalEdgeStyle;rounded=0;orthogonalLoop=1;jettySize=auto;html=1;" edge="1" parent="1" source="25vutI120iv0R7yCuZB1-97" target="25vutI120iv0R7yCuZB1-103">
          <mxGeometry relative="1" as="geometry" />
        </mxCell>
        <mxCell id="25vutI120iv0R7yCuZB1-108" value="" style="edgeStyle=orthogonalEdgeStyle;rounded=0;orthogonalLoop=1;jettySize=auto;html=1;" edge="1" parent="1" source="25vutI120iv0R7yCuZB1-97" target="25vutI120iv0R7yCuZB1-107">
          <mxGeometry relative="1" as="geometry" />
        </mxCell>
        <mxCell id="25vutI120iv0R7yCuZB1-116" value="" style="edgeStyle=orthogonalEdgeStyle;rounded=0;orthogonalLoop=1;jettySize=auto;html=1;" edge="1" parent="1" source="25vutI120iv0R7yCuZB1-97" target="25vutI120iv0R7yCuZB1-115">
          <mxGeometry relative="1" as="geometry" />
        </mxCell>
        <mxCell id="25vutI120iv0R7yCuZB1-97" value="&lt;font style=&quot;font-size: 10px;&quot;&gt;memberUsedWater:&lt;br&gt;&amp;lt;=10&lt;br&gt;or&amp;nbsp;&lt;br&gt;&amp;gt;10 and &amp;lt;=20&lt;br&gt;or&lt;br&gt;&amp;gt;20 and &amp;lt;=30&lt;br&gt;or&lt;br&gt;&amp;gt;30&lt;/font&gt;" style="rhombus;whiteSpace=wrap;html=1;rounded=0;" vertex="1" parent="1">
          <mxGeometry x="2599.3" y="2110" width="238.75" height="160" as="geometry" />
        </mxCell>
        <mxCell id="25vutI120iv0R7yCuZB1-101" style="edgeStyle=orthogonalEdgeStyle;rounded=0;orthogonalLoop=1;jettySize=auto;html=1;exitX=0;exitY=1;exitDx=0;exitDy=0;entryX=0;entryY=0.5;entryDx=0;entryDy=0;" edge="1" parent="1" target="25vutI120iv0R7yCuZB1-102">
          <mxGeometry relative="1" as="geometry">
            <mxPoint x="1858.67" y="2912" as="targetPoint" />
            <mxPoint x="1618.67" y="440" as="sourcePoint" />
            <Array as="points">
              <mxPoint x="1619" y="400" />
              <mxPoint x="1420" y="400" />
              <mxPoint x="1420" y="2912" />
              <mxPoint x="1900" y="2912" />
              <mxPoint x="1900" y="2940" />
            </Array>
          </mxGeometry>
        </mxCell>
        <mxCell id="25vutI120iv0R7yCuZB1-102" value="End" style="ellipse;whiteSpace=wrap;html=1;" vertex="1" parent="1">
          <mxGeometry x="1960" y="2870" width="290" height="140" as="geometry" />
        </mxCell>
        <mxCell id="25vutI120iv0R7yCuZB1-106" value="" style="edgeStyle=orthogonalEdgeStyle;rounded=0;orthogonalLoop=1;jettySize=auto;html=1;" edge="1" parent="1" source="25vutI120iv0R7yCuZB1-103" target="25vutI120iv0R7yCuZB1-105">
          <mxGeometry relative="1" as="geometry" />
        </mxCell>
        <mxCell id="25vutI120iv0R7yCuZB1-103" value="&amp;lt;=10" style="rhombus;whiteSpace=wrap;html=1;rounded=0;" vertex="1" parent="1">
          <mxGeometry x="2398.6650000000004" y="2150" width="80" height="80" as="geometry" />
        </mxCell>
        <mxCell id="25vutI120iv0R7yCuZB1-111" style="edgeStyle=orthogonalEdgeStyle;rounded=0;orthogonalLoop=1;jettySize=auto;html=1;" edge="1" parent="1" source="25vutI120iv0R7yCuZB1-105" target="25vutI120iv0R7yCuZB1-109">
          <mxGeometry relative="1" as="geometry">
            <Array as="points">
              <mxPoint x="2048.67" y="2190" />
            </Array>
          </mxGeometry>
        </mxCell>
        <mxCell id="25vutI120iv0R7yCuZB1-105" value="&amp;nbsp;money = usedWater * 5973 * 1.1" style="whiteSpace=wrap;html=1;rounded=0;" vertex="1" parent="1">
          <mxGeometry x="2108.67" y="2160" width="230" height="60" as="geometry" />
        </mxCell>
        <mxCell id="25vutI120iv0R7yCuZB1-113" value="" style="edgeStyle=orthogonalEdgeStyle;rounded=0;orthogonalLoop=1;jettySize=auto;html=1;" edge="1" parent="1" source="25vutI120iv0R7yCuZB1-107" target="25vutI120iv0R7yCuZB1-112">
          <mxGeometry relative="1" as="geometry" />
        </mxCell>
        <mxCell id="25vutI120iv0R7yCuZB1-107" value="&amp;gt;10&lt;br&gt;and &amp;lt;-20" style="rhombus;whiteSpace=wrap;html=1;rounded=0;" vertex="1" parent="1">
          <mxGeometry x="2678.665" y="2360" width="80" height="80" as="geometry" />
        </mxCell>
        <mxCell id="25vutI120iv0R7yCuZB1-152" style="edgeStyle=orthogonalEdgeStyle;rounded=0;orthogonalLoop=1;jettySize=auto;html=1;" edge="1" parent="1" source="25vutI120iv0R7yCuZB1-109" target="25vutI120iv0R7yCuZB1-102">
          <mxGeometry relative="1" as="geometry" />
        </mxCell>
        <mxCell id="25vutI120iv0R7yCuZB1-109" value="&lt;div&gt;Console.WriteLine(&quot;Name of customer: {0}&quot;, name);&lt;/div&gt;&lt;div&gt;Console.WriteLine(&quot;Last month water index is: {0} m3&quot;, lastWater);&lt;/div&gt;&lt;div&gt;Console.WriteLine(&quot;This month water index is: {0} m3&quot;, thisWater);&lt;/div&gt;&lt;div&gt;Console.WriteLine(&quot;This month water consumption amount is: {0}&quot;, usedWater);&lt;/div&gt;&lt;div&gt;Console.WriteLine(&quot;This month&#39;s your {0} water bill is: {1} VND&quot;, typeCustomer, money);&lt;/div&gt;" style="rounded=1;whiteSpace=wrap;html=1;" vertex="1" parent="1">
          <mxGeometry x="1686.17" y="2610" width="465" height="130" as="geometry" />
        </mxCell>
        <mxCell id="25vutI120iv0R7yCuZB1-114" style="edgeStyle=orthogonalEdgeStyle;rounded=0;orthogonalLoop=1;jettySize=auto;html=1;entryX=0.908;entryY=-0.01;entryDx=0;entryDy=0;entryPerimeter=0;" edge="1" parent="1" source="25vutI120iv0R7yCuZB1-112" target="25vutI120iv0R7yCuZB1-109">
          <mxGeometry relative="1" as="geometry">
            <mxPoint x="2108.6700000000005" y="2599.9999999999995" as="targetPoint" />
            <Array as="points">
              <mxPoint x="2109.67" y="2550" />
              <mxPoint x="2109.67" y="2600" />
            </Array>
          </mxGeometry>
        </mxCell>
        <mxCell id="25vutI120iv0R7yCuZB1-112" value="&lt;div&gt;&lt;span style=&quot;background-color: initial;&quot;&gt;&amp;nbsp;money = usedWater * 7052 * 1.1;&lt;/span&gt;&lt;br&gt;&lt;/div&gt;" style="whiteSpace=wrap;html=1;rounded=0;" vertex="1" parent="1">
          <mxGeometry x="2608.66" y="2520" width="220" height="60" as="geometry" />
        </mxCell>
        <mxCell id="25vutI120iv0R7yCuZB1-120" value="" style="edgeStyle=orthogonalEdgeStyle;rounded=0;orthogonalLoop=1;jettySize=auto;html=1;exitX=0.5;exitY=1;exitDx=0;exitDy=0;" edge="1" parent="1" source="25vutI120iv0R7yCuZB1-115" target="25vutI120iv0R7yCuZB1-119">
          <mxGeometry relative="1" as="geometry">
            <mxPoint x="2958.675" y="2200" as="sourcePoint" />
            <Array as="points">
              <mxPoint x="3038.67" y="2440" />
              <mxPoint x="3038.67" y="2440" />
            </Array>
          </mxGeometry>
        </mxCell>
        <mxCell id="25vutI120iv0R7yCuZB1-115" value="&amp;gt;20&lt;br&gt;and&lt;br&gt;&amp;lt;=30" style="rhombus;whiteSpace=wrap;html=1;rounded=0;" vertex="1" parent="1">
          <mxGeometry x="2997.425" y="2150" width="80" height="80" as="geometry" />
        </mxCell>
        <mxCell id="25vutI120iv0R7yCuZB1-121" style="edgeStyle=orthogonalEdgeStyle;rounded=0;orthogonalLoop=1;jettySize=auto;html=1;" edge="1" parent="1" source="25vutI120iv0R7yCuZB1-119" target="25vutI120iv0R7yCuZB1-109">
          <mxGeometry relative="1" as="geometry">
            <mxPoint x="2298.67" y="2720" as="targetPoint" />
            <Array as="points">
              <mxPoint x="3053.67" y="2660" />
            </Array>
          </mxGeometry>
        </mxCell>
        <mxCell id="25vutI120iv0R7yCuZB1-119" value="&amp;nbsp;money = usedWater * 8699 * 1.1;" style="whiteSpace=wrap;html=1;rounded=0;" vertex="1" parent="1">
          <mxGeometry x="2948.67" y="2520" width="208.75" height="60" as="geometry" />
        </mxCell>
        <mxCell id="25vutI120iv0R7yCuZB1-122" value="" style="endArrow=classic;html=1;rounded=0;exitX=0;exitY=1;exitDx=0;exitDy=0;entryX=1;entryY=0.5;entryDx=0;entryDy=0;" edge="1" parent="1" source="25vutI120iv0R7yCuZB1-97" target="25vutI120iv0R7yCuZB1-123">
          <mxGeometry width="50" height="50" relative="1" as="geometry">
            <mxPoint x="3048.67" y="2610" as="sourcePoint" />
            <mxPoint x="2558.67" y="2300" as="targetPoint" />
          </mxGeometry>
        </mxCell>
        <mxCell id="25vutI120iv0R7yCuZB1-125" value="" style="edgeStyle=orthogonalEdgeStyle;rounded=0;orthogonalLoop=1;jettySize=auto;html=1;" edge="1" parent="1" source="25vutI120iv0R7yCuZB1-123" target="25vutI120iv0R7yCuZB1-124">
          <mxGeometry relative="1" as="geometry" />
        </mxCell>
        <mxCell id="25vutI120iv0R7yCuZB1-123" value="&amp;gt;30" style="rhombus;whiteSpace=wrap;html=1;" vertex="1" parent="1">
          <mxGeometry x="2468.67" y="2270" width="80" height="80" as="geometry" />
        </mxCell>
        <mxCell id="25vutI120iv0R7yCuZB1-124" value="oney = usedWater * 15929 * 1.1;" style="whiteSpace=wrap;html=1;" vertex="1" parent="1">
          <mxGeometry x="2418.67" y="2420" width="180" height="60" as="geometry" />
        </mxCell>
        <mxCell id="25vutI120iv0R7yCuZB1-126" style="edgeStyle=orthogonalEdgeStyle;rounded=0;orthogonalLoop=1;jettySize=auto;html=1;entryX=0.847;entryY=-0.01;entryDx=0;entryDy=0;entryPerimeter=0;" edge="1" parent="1" source="25vutI120iv0R7yCuZB1-124" target="25vutI120iv0R7yCuZB1-109">
          <mxGeometry relative="1" as="geometry" />
        </mxCell>
        <mxCell id="25vutI120iv0R7yCuZB1-128" value="" style="endArrow=none;html=1;rounded=0;entryX=0.5;entryY=1;entryDx=0;entryDy=0;" edge="1" parent="1" target="25vutI120iv0R7yCuZB1-77">
          <mxGeometry width="50" height="50" relative="1" as="geometry">
            <mxPoint x="2048.67" y="1740" as="sourcePoint" />
            <mxPoint x="2058.67" y="1740" as="targetPoint" />
          </mxGeometry>
        </mxCell>
        <mxCell id="25vutI120iv0R7yCuZB1-129" value="F" style="text;html=1;align=center;verticalAlign=middle;resizable=0;points=[];autosize=1;strokeColor=none;fillColor=none;" vertex="1" parent="1">
          <mxGeometry x="1998.67" y="1660" width="30" height="30" as="geometry" />
        </mxCell>
        <mxCell id="25vutI120iv0R7yCuZB1-130" value="" style="endArrow=classic;html=1;rounded=0;entryX=1;entryY=0.5;entryDx=0;entryDy=0;" edge="1" parent="1" target="25vutI120iv0R7yCuZB1-131">
          <mxGeometry width="50" height="50" relative="1" as="geometry">
            <mxPoint x="2048.67" y="1740" as="sourcePoint" />
            <mxPoint x="1868.67" y="1780" as="targetPoint" />
          </mxGeometry>
        </mxCell>
        <mxCell id="25vutI120iv0R7yCuZB1-134" value="" style="edgeStyle=orthogonalEdgeStyle;rounded=0;orthogonalLoop=1;jettySize=auto;html=1;" edge="1" parent="1" source="25vutI120iv0R7yCuZB1-131" target="25vutI120iv0R7yCuZB1-133">
          <mxGeometry relative="1" as="geometry" />
        </mxCell>
        <mxCell id="25vutI120iv0R7yCuZB1-131" value="type = a" style="rhombus;whiteSpace=wrap;html=1;" vertex="1" parent="1">
          <mxGeometry x="1668.67" y="1700" width="80" height="80" as="geometry" />
        </mxCell>
        <mxCell id="25vutI120iv0R7yCuZB1-133" value="&lt;div&gt;&amp;nbsp;money = usedWater * 9955 * 1.1;&lt;/div&gt;" style="whiteSpace=wrap;html=1;" vertex="1" parent="1">
          <mxGeometry x="1608.67" y="1838" width="200" height="30" as="geometry" />
        </mxCell>
        <mxCell id="25vutI120iv0R7yCuZB1-135" style="edgeStyle=orthogonalEdgeStyle;rounded=0;orthogonalLoop=1;jettySize=auto;html=1;entryX=0.048;entryY=0.077;entryDx=0;entryDy=0;entryPerimeter=0;" edge="1" parent="1" source="25vutI120iv0R7yCuZB1-133" target="25vutI120iv0R7yCuZB1-109">
          <mxGeometry relative="1" as="geometry" />
        </mxCell>
        <mxCell id="25vutI120iv0R7yCuZB1-136" value="" style="endArrow=classic;html=1;rounded=0;entryX=0.5;entryY=0;entryDx=0;entryDy=0;" edge="1" parent="1" target="25vutI120iv0R7yCuZB1-137">
          <mxGeometry width="50" height="50" relative="1" as="geometry">
            <mxPoint x="2048.67" y="1740" as="sourcePoint" />
            <mxPoint x="2018.67" y="1860" as="targetPoint" />
          </mxGeometry>
        </mxCell>
        <mxCell id="25vutI120iv0R7yCuZB1-142" style="edgeStyle=orthogonalEdgeStyle;rounded=0;orthogonalLoop=1;jettySize=auto;html=1;" edge="1" parent="1" source="25vutI120iv0R7yCuZB1-137" target="25vutI120iv0R7yCuZB1-138">
          <mxGeometry relative="1" as="geometry" />
        </mxCell>
        <mxCell id="25vutI120iv0R7yCuZB1-137" value="type = p" style="rhombus;whiteSpace=wrap;html=1;" vertex="1" parent="1">
          <mxGeometry x="1828.67" y="1860" width="80" height="80" as="geometry" />
        </mxCell>
        <mxCell id="25vutI120iv0R7yCuZB1-143" style="edgeStyle=orthogonalEdgeStyle;rounded=0;orthogonalLoop=1;jettySize=auto;html=1;exitX=0.5;exitY=1;exitDx=0;exitDy=0;" edge="1" parent="1" source="25vutI120iv0R7yCuZB1-138">
          <mxGeometry relative="1" as="geometry">
            <mxPoint x="1858.67" y="2060" as="targetPoint" />
          </mxGeometry>
        </mxCell>
        <mxCell id="25vutI120iv0R7yCuZB1-138" value="money = usedWater * 11615 * 1.1" style="whiteSpace=wrap;html=1;" vertex="1" parent="1">
          <mxGeometry x="1773.67" y="2030" width="190" height="30" as="geometry" />
        </mxCell>
        <mxCell id="25vutI120iv0R7yCuZB1-140" style="edgeStyle=orthogonalEdgeStyle;rounded=0;orthogonalLoop=1;jettySize=auto;html=1;entryX=0.425;entryY=-0.012;entryDx=0;entryDy=0;entryPerimeter=0;" edge="1" parent="1" source="25vutI120iv0R7yCuZB1-138" target="25vutI120iv0R7yCuZB1-109">
          <mxGeometry relative="1" as="geometry">
            <Array as="points">
              <mxPoint x="1868.67" y="2608" />
            </Array>
          </mxGeometry>
        </mxCell>
        <mxCell id="25vutI120iv0R7yCuZB1-147" value="" style="edgeStyle=orthogonalEdgeStyle;rounded=0;orthogonalLoop=1;jettySize=auto;html=1;" edge="1" parent="1" source="25vutI120iv0R7yCuZB1-144" target="25vutI120iv0R7yCuZB1-146">
          <mxGeometry relative="1" as="geometry" />
        </mxCell>
        <mxCell id="25vutI120iv0R7yCuZB1-144" value="type = b" style="rhombus;whiteSpace=wrap;html=1;" vertex="1" parent="1">
          <mxGeometry x="2098.67" y="1860" width="80" height="80" as="geometry" />
        </mxCell>
        <mxCell id="25vutI120iv0R7yCuZB1-145" value="" style="endArrow=classic;html=1;rounded=0;" edge="1" parent="1" target="25vutI120iv0R7yCuZB1-144">
          <mxGeometry width="50" height="50" relative="1" as="geometry">
            <mxPoint x="2048.67" y="1740" as="sourcePoint" />
            <mxPoint x="2048.67" y="1750" as="targetPoint" />
          </mxGeometry>
        </mxCell>
        <mxCell id="25vutI120iv0R7yCuZB1-146" value="money = usedWater * 22068 * 1.1;" style="whiteSpace=wrap;html=1;" vertex="1" parent="1">
          <mxGeometry x="2043.67" y="2030" width="190" height="60" as="geometry" />
        </mxCell>
        <mxCell id="25vutI120iv0R7yCuZB1-148" style="edgeStyle=orthogonalEdgeStyle;rounded=0;orthogonalLoop=1;jettySize=auto;html=1;entryX=0.629;entryY=0;entryDx=0;entryDy=0;entryPerimeter=0;" edge="1" parent="1" source="25vutI120iv0R7yCuZB1-146" target="25vutI120iv0R7yCuZB1-109">
          <mxGeometry relative="1" as="geometry">
            <Array as="points">
              <mxPoint x="1978.67" y="2060" />
            </Array>
          </mxGeometry>
        </mxCell>
      </root>
    </mxGraphModel>
  </diagram>
</mxfile>
